# xmcd CD database file
#
# Track frame offsets:
#	150
#	36555
#	52615
#	67337
#	98850
#	139735
#	167727
#	181000
#	194982
#
# Disc length: 2960 seconds
#
# Revision: 2
# Processed by: cddbd v1.4b41PL1 Copyright (c) Steve Scherf et al.
# Submitted via: Feurio! 1.50.2ß - http://www.feurio.com
#
DISCID=840b8e09
DTITLE=Jan Hengmith - Solo Flamenco
DYEAR=1900
DGENRE=
TTITLE0=Homenaje A Diego Del Gastor 
TTITLE1=A Mi Gente 
TTITLE2=Aire De Cuba
TTITLE3=Historias 
TTITLE4=A Los Habichuelas
TTITLE5=Homenaje A Subicas
TTITLE6=Minerita
TTITLE7=A Stochelo
TTITLE8=Albaycin Y Sacromonte
EXTD=
EXTT0=
EXTT1=
EXTT2=
EXTT3=
EXTT4=
EXTT5=
EXTT6=
EXTT7=
EXTT8=
PLAYORDER=
